# xmcd
#
# Track frame offsets:
#	150
#	23953
#	44068
#	66347
#	96442
#	115507
#	136859
#	162798
#	192700
#	213159
#	231764
#	237055
#	259208
#
# Disc length: 3873 seconds
#
# Revision: 1
# Processed by: cddbd v1.5.2PL0 Copyright (c) Steve Scherf et al.
# Submitted via: dBpowerAMP V4.0
#
DISCID=b80f1f0d
DTITLE=Acoustic Syndicate - Long Way Round
DYEAR=2004
DGENRE=Alt. Country
TTITLE0=Long Way Round
TTITLE1=Talk
TTITLE2=The Blue Bird Train
TTITLE3=Hypocrite Smile
TTITLE4=The Rhythm Of Us
TTITLE5=They Come This Way
TTITLE6=Carry The World
TTITLE7=The Pilot
TTITLE8=Been There Again
TTITLE9=bound
TTITLE10=Wake
TTITLE11=Just As It Happened
TTITLE12=A Prayer For Solace
EXTD=
EXTT0=
EXTT1=
EXTT2=
EXTT3=
EXTT4=
EXTT5=
EXTT6=
EXTT7=
EXTT8=
EXTT9=
EXTT10=
EXTT11=
EXTT12=
PLAYORDER=
